<svg width="119" height="32" viewBox="0 0 119 32" fill="none" xmlns="http://www.w3.org/2000/svg">
<path d="M13.6477 8.42045C13.5568 7.50379 13.1667 6.79167 12.4773 6.28409C11.7879 5.77651 10.8523 5.52273 9.67045 5.52273C8.86742 5.52273 8.18939 5.63636 7.63636 5.86364C7.08333 6.08333 6.65909 6.39015 6.36364 6.78409C6.07576 7.17803 5.93182 7.625 5.93182 8.125C5.91667 8.54167 6.00379 8.9053 6.19318 9.21591C6.39015 9.52652 6.65909 9.79545 7 10.0227C7.34091 10.2424 7.73485 10.4356 8.18182 10.6023C8.62879 10.7614 9.10606 10.8977 9.61364 11.0114L11.7045 11.5114C12.7197 11.7386 13.6515 12.0417 14.5 12.4205C15.3485 12.7992 16.0833 13.2652 16.7045 13.8182C17.3258 14.3712 17.8068 15.0227 18.1477 15.7727C18.4962 16.5227 18.6742 17.3826 18.6818 18.3523C18.6742 19.7765 18.3106 21.0114 17.5909 22.0568C16.8788 23.0947 15.8485 23.9015 14.5 24.4773C13.1591 25.0455 11.5417 25.3295 9.64773 25.3295C7.76894 25.3295 6.13258 25.0417 4.73864 24.4659C3.35227 23.8902 2.26894 23.0379 1.48864 21.9091C0.715909 20.7727 0.310606 19.3674 0.272727 17.6932H5.03409C5.08712 18.4735 5.31061 19.125 5.70455 19.6477C6.10606 20.1629 6.64015 20.553 7.30682 20.8182C7.98106 21.0758 8.74242 21.2045 9.59091 21.2045C10.4242 21.2045 11.1477 21.0833 11.7614 20.8409C12.3826 20.5985 12.8636 20.2614 13.2045 19.8295C13.5455 19.3977 13.7159 18.9015 13.7159 18.3409C13.7159 17.8182 13.5606 17.3788 13.25 17.0227C12.947 16.6667 12.5 16.3636 11.9091 16.1136C11.3258 15.8636 10.6098 15.6364 9.76136 15.4318L7.22727 14.7955C5.26515 14.3182 3.71591 13.572 2.57955 12.5568C1.44318 11.5417 0.878788 10.1742 0.886364 8.45454C0.878788 7.04545 1.25379 5.81439 2.01136 4.76136C2.77652 3.70833 3.82576 2.88636 5.15909 2.29545C6.49242 1.70454 8.00758 1.40909 9.70455 1.40909C11.4318 1.40909 12.9394 1.70454 14.2273 2.29545C15.5227 2.88636 16.5303 3.70833 17.25 4.76136C17.9697 5.81439 18.3409 7.03409 18.3636 8.42045H13.6477ZM21.9006 25V7.54545H26.7415V25H21.9006ZM24.3324 5.29545C23.6127 5.29545 22.9953 5.05682 22.4801 4.57954C21.9725 4.0947 21.7188 3.51515 21.7188 2.84091C21.7188 2.17424 21.9725 1.60227 22.4801 1.125C22.9953 0.640151 23.6127 0.397726 24.3324 0.397726C25.0521 0.397726 25.6657 0.640151 26.1733 1.125C26.6884 1.60227 26.946 2.17424 26.946 2.84091C26.946 3.51515 26.6884 4.0947 26.1733 4.57954C25.6657 5.05682 25.0521 5.29545 24.3324 5.29545ZM38.483 31.9091C36.9148 31.9091 35.5701 31.6932 34.4489 31.2614C33.3352 30.8371 32.4489 30.2576 31.7898 29.5227C31.1307 28.7879 30.7027 27.9621 30.5057 27.0455L34.983 26.4432C35.1193 26.7917 35.3352 27.1174 35.6307 27.4205C35.9261 27.7235 36.3163 27.9659 36.8011 28.1477C37.2936 28.3371 37.892 28.4318 38.5966 28.4318C39.6496 28.4318 40.517 28.1742 41.1989 27.6591C41.8883 27.1515 42.233 26.2992 42.233 25.1023V21.9091H42.0284C41.8163 22.3939 41.4981 22.8523 41.0739 23.2841C40.6496 23.7159 40.1042 24.0682 39.4375 24.3409C38.7708 24.6136 37.9754 24.75 37.0511 24.75C35.7405 24.75 34.5473 24.447 33.4716 23.8409C32.4034 23.2273 31.5511 22.2917 30.9148 21.0341C30.286 19.7689 29.9716 18.1705 29.9716 16.2386C29.9716 14.2614 30.2936 12.6098 30.9375 11.2841C31.5814 9.95833 32.4375 8.96591 33.5057 8.30682C34.5814 7.64773 35.7595 7.31818 37.0398 7.31818C38.017 7.31818 38.8352 7.48485 39.4943 7.81818C40.1534 8.14394 40.6837 8.55303 41.0852 9.04545C41.4943 9.5303 41.8087 10.0076 42.0284 10.4773H42.2102V7.54545H47.017V25.1705C47.017 26.6553 46.6534 27.8977 45.9261 28.8977C45.1989 29.8977 44.1913 30.6477 42.9034 31.1477C41.6231 31.6553 40.1496 31.9091 38.483 31.9091ZM38.5852 21.1136C39.3655 21.1136 40.0246 20.9205 40.5625 20.5341C41.108 20.1402 41.5246 19.5795 41.8125 18.8523C42.108 18.1174 42.2557 17.2386 42.2557 16.2159C42.2557 15.1932 42.1117 14.3068 41.8239 13.5568C41.536 12.7992 41.1193 12.2121 40.5739 11.7955C40.0284 11.3788 39.3655 11.1705 38.5852 11.1705C37.7898 11.1705 37.1193 11.3864 36.5739 11.8182C36.0284 12.2424 35.6155 12.8333 35.3352 13.5909C35.0549 14.3485 34.9148 15.2235 34.9148 16.2159C34.9148 17.2235 35.0549 18.0947 35.3352 18.8295C35.6231 19.5568 36.036 20.1212 36.5739 20.5227C37.1193 20.9167 37.7898 21.1136 38.5852 21.1136ZM55.7102 14.9091V25H50.8693V7.54545H55.483V10.625H55.6875C56.0739 9.60985 56.7216 8.80682 57.6307 8.21591C58.5398 7.61742 59.642 7.31818 60.9375 7.31818C62.1496 7.31818 63.2064 7.58333 64.108 8.11364C65.0095 8.64394 65.7102 9.40151 66.2102 10.3864C66.7102 11.3636 66.9602 12.5303 66.9602 13.8864V25H62.1193V14.75C62.1269 13.6818 61.8542 12.8485 61.3011 12.25C60.7481 11.6439 59.9867 11.3409 59.017 11.3409C58.3655 11.3409 57.7898 11.4811 57.2898 11.7614C56.7973 12.0417 56.411 12.4508 56.1307 12.9886C55.858 13.5189 55.7178 14.1591 55.7102 14.9091ZM92.6477 1.72727H97.5682V16.8409C97.5682 18.5379 97.1629 20.0227 96.3523 21.2955C95.5492 22.5682 94.4242 23.5606 92.9773 24.2727C91.5303 24.9773 89.8447 25.3295 87.9205 25.3295C85.9886 25.3295 84.2992 24.9773 82.8523 24.2727C81.4053 23.5606 80.2803 22.5682 79.4773 21.2955C78.6742 20.0227 78.2727 18.5379 78.2727 16.8409V1.72727H83.1932V16.4205C83.1932 17.3068 83.3864 18.0947 83.7727 18.7841C84.1667 19.4735 84.7197 20.0152 85.4318 20.4091C86.1439 20.803 86.9735 21 87.9205 21C88.875 21 89.7045 20.803 90.4091 20.4091C91.1212 20.0152 91.6705 19.4735 92.0568 18.7841C92.4508 18.0947 92.6477 17.3068 92.6477 16.4205V1.72727ZM101.526 31.5455V7.54545H106.298V10.4773H106.514C106.726 10.0076 107.033 9.5303 107.435 9.04545C107.844 8.55303 108.374 8.14394 109.026 7.81818C109.685 7.48485 110.503 7.31818 111.48 7.31818C112.753 7.31818 113.927 7.65152 115.003 8.31818C116.079 8.97727 116.938 9.97348 117.582 11.3068C118.226 12.6326 118.548 14.2955 118.548 16.2955C118.548 18.2424 118.234 19.8864 117.605 21.2273C116.984 22.5606 116.135 23.572 115.06 24.2614C113.991 24.9432 112.795 25.2841 111.469 25.2841C110.529 25.2841 109.73 25.1288 109.071 24.8182C108.42 24.5076 107.885 24.1174 107.469 23.6477C107.052 23.1705 106.734 22.6894 106.514 22.2045H106.366V31.5455H101.526ZM106.264 16.2727C106.264 17.3106 106.408 18.2159 106.696 18.9886C106.984 19.7614 107.401 20.3636 107.946 20.7955C108.491 21.2197 109.154 21.4318 109.935 21.4318C110.723 21.4318 111.389 21.2159 111.935 20.7841C112.48 20.3447 112.893 19.7386 113.173 18.9659C113.461 18.1856 113.605 17.2879 113.605 16.2727C113.605 15.2652 113.465 14.3788 113.185 13.6136C112.904 12.8485 112.491 12.25 111.946 11.8182C111.401 11.3864 110.73 11.1705 109.935 11.1705C109.147 11.1705 108.48 11.3788 107.935 11.7955C107.397 12.2121 106.984 12.803 106.696 13.5682C106.408 14.3333 106.264 15.2348 106.264 16.2727Z" fill="url(#paint0_linear_1_724)"/>
<defs>
<linearGradient id="paint0_linear_1_724" x1="82.1875" y1="-1.99999" x2="147.235" y2="19.7025" gradientUnits="userSpaceOnUse">
<stop stop-color="white"/>
<stop offset="1" stop-color="white" stop-opacity="0"/>
</linearGradient>
</defs>
</svg>
