<svg width="83" height="32" viewBox="0 0 83 32" fill="none" xmlns="http://www.w3.org/2000/svg">
<path d="M0.0227273 25V1.72727H4.94318V20.9432H14.9205V25H0.0227273ZM25.9744 25.3409C24.2093 25.3409 22.6828 24.9659 21.3949 24.2159C20.1146 23.4583 19.1259 22.4053 18.429 21.0568C17.732 19.7008 17.3835 18.1288 17.3835 16.3409C17.3835 14.5379 17.732 12.9621 18.429 11.6136C19.1259 10.2576 20.1146 9.20454 21.3949 8.45454C22.6828 7.69697 24.2093 7.31818 25.9744 7.31818C27.7396 7.31818 29.2623 7.69697 30.5426 8.45454C31.8305 9.20454 32.8229 10.2576 33.5199 11.6136C34.2169 12.9621 34.5653 14.5379 34.5653 16.3409C34.5653 18.1288 34.2169 19.7008 33.5199 21.0568C32.8229 22.4053 31.8305 23.4583 30.5426 24.2159C29.2623 24.9659 27.7396 25.3409 25.9744 25.3409ZM25.9972 21.5909C26.8002 21.5909 27.4706 21.3636 28.0085 20.9091C28.5464 20.447 28.9517 19.8182 29.2244 19.0227C29.5047 18.2273 29.6449 17.322 29.6449 16.3068C29.6449 15.2917 29.5047 14.3864 29.2244 13.5909C28.9517 12.7955 28.5464 12.1667 28.0085 11.7045C27.4706 11.2424 26.8002 11.0114 25.9972 11.0114C25.1866 11.0114 24.5047 11.2424 23.9517 11.7045C23.4063 12.1667 22.9934 12.7955 22.7131 13.5909C22.4403 14.3864 22.304 15.2917 22.304 16.3068C22.304 17.322 22.4403 18.2273 22.7131 19.0227C22.9934 19.8182 23.4063 20.447 23.9517 20.9091C24.5047 21.3636 25.1866 21.5909 25.9972 21.5909ZM45.5767 31.9091C44.0085 31.9091 42.6638 31.6932 41.5426 31.2614C40.429 30.8371 39.5426 30.2576 38.8835 29.5227C38.2244 28.7879 37.7964 27.9621 37.5994 27.0455L42.0767 26.4432C42.2131 26.7917 42.429 27.1174 42.7244 27.4205C43.0199 27.7235 43.41 27.9659 43.8949 28.1477C44.3873 28.3371 44.9858 28.4318 45.6903 28.4318C46.7434 28.4318 47.6108 28.1742 48.2926 27.6591C48.982 27.1515 49.3267 26.2992 49.3267 25.1023V21.9091H49.1222C48.91 22.3939 48.5919 22.8523 48.1676 23.2841C47.7434 23.7159 47.1979 24.0682 46.5312 24.3409C45.8646 24.6136 45.0691 24.75 44.1449 24.75C42.8343 24.75 41.6411 24.447 40.5653 23.8409C39.4972 23.2273 38.6449 22.2917 38.0085 21.0341C37.3797 19.7689 37.0653 18.1705 37.0653 16.2386C37.0653 14.2614 37.3873 12.6098 38.0312 11.2841C38.6752 9.95833 39.5313 8.96591 40.5994 8.30682C41.6752 7.64773 42.8532 7.31818 44.1335 7.31818C45.1108 7.31818 45.929 7.48485 46.5881 7.81818C47.2472 8.14394 47.7775 8.55303 48.179 9.04545C48.5881 9.5303 48.9025 10.0076 49.1222 10.4773H49.304V7.54545H54.1108V25.1705C54.1108 26.6553 53.7472 27.8977 53.0199 28.8977C52.2926 29.8977 51.285 30.6477 49.9972 31.1477C48.7169 31.6553 47.2434 31.9091 45.5767 31.9091ZM45.679 21.1136C46.4593 21.1136 47.1184 20.9205 47.6562 20.5341C48.2017 20.1402 48.6184 19.5795 48.9062 18.8523C49.2017 18.1174 49.3494 17.2386 49.3494 16.2159C49.3494 15.1932 49.2055 14.3068 48.9176 13.5568C48.6297 12.7992 48.2131 12.2121 47.6676 11.7955C47.1222 11.3788 46.4593 11.1705 45.679 11.1705C44.8835 11.1705 44.2131 11.3864 43.6676 11.8182C43.1222 12.2424 42.7093 12.8333 42.429 13.5909C42.1487 14.3485 42.0085 15.2235 42.0085 16.2159C42.0085 17.2235 42.1487 18.0947 42.429 18.8295C42.7169 19.5568 43.1297 20.1212 43.6676 20.5227C44.2131 20.9167 44.8835 21.1136 45.679 21.1136ZM57.9631 25V7.54545H62.804V25H57.9631ZM60.3949 5.29545C59.6752 5.29545 59.0578 5.05682 58.5426 4.57954C58.035 4.0947 57.7812 3.51515 57.7812 2.84091C57.7812 2.17424 58.035 1.60227 58.5426 1.125C59.0578 0.640151 59.6752 0.397726 60.3949 0.397726C61.1146 0.397726 61.7282 0.640151 62.2358 1.125C62.7509 1.60227 63.0085 2.17424 63.0085 2.84091C63.0085 3.51515 62.7509 4.0947 62.2358 4.57954C61.7282 5.05682 61.1146 5.29545 60.3949 5.29545ZM71.5227 14.9091V25H66.6818V7.54545H71.2955V10.625H71.5C71.8864 9.60985 72.5341 8.80682 73.4432 8.21591C74.3523 7.61742 75.4545 7.31818 76.75 7.31818C77.9621 7.31818 79.0189 7.58333 79.9205 8.11364C80.822 8.64394 81.5227 9.40151 82.0227 10.3864C82.5227 11.3636 82.7727 12.5303 82.7727 13.8864V25H77.9318V14.75C77.9394 13.6818 77.6667 12.8485 77.1136 12.25C76.5606 11.6439 75.7992 11.3409 74.8295 11.3409C74.178 11.3409 73.6023 11.4811 73.1023 11.7614C72.6098 12.0417 72.2235 12.4508 71.9432 12.9886C71.6705 13.5189 71.5303 14.1591 71.5227 14.9091Z" fill="url(#paint0_linear_1_453)"/>
<defs>
<linearGradient id="paint0_linear_1_453" x1="57.8125" y1="-1.99999" x2="106.96" y2="9.79005" gradientUnits="userSpaceOnUse">
<stop stop-color="white"/>
<stop offset="1" stop-color="white" stop-opacity="0"/>
</linearGradient>
</defs>
</svg>
