<svg width="162" height="25" viewBox="0 0 162 25" fill="none" xmlns="http://www.w3.org/2000/svg">
<path d="M22.4091 12.3636C22.4091 14.9015 21.928 17.0606 20.9659 18.8409C20.0114 20.6212 18.7083 21.9811 17.0568 22.9205C15.4129 23.8523 13.5644 24.3182 11.5114 24.3182C9.44318 24.3182 7.58712 23.8485 5.94318 22.9091C4.29924 21.9697 3 20.6098 2.04545 18.8295C1.09091 17.0492 0.613636 14.8939 0.613636 12.3636C0.613636 9.82576 1.09091 7.66667 2.04545 5.88636C3 4.10606 4.29924 2.75 5.94318 1.81818C7.58712 0.878787 9.44318 0.40909 11.5114 0.40909C13.5644 0.40909 15.4129 0.878787 17.0568 1.81818C18.7083 2.75 20.0114 4.10606 20.9659 5.88636C21.928 7.66667 22.4091 9.82576 22.4091 12.3636ZM17.4205 12.3636C17.4205 10.7197 17.1742 9.33333 16.6818 8.20455C16.197 7.07576 15.5114 6.2197 14.625 5.63636C13.7386 5.05303 12.7008 4.76136 11.5114 4.76136C10.322 4.76136 9.28409 5.05303 8.39773 5.63636C7.51136 6.2197 6.82197 7.07576 6.32955 8.20455C5.8447 9.33333 5.60227 10.7197 5.60227 12.3636C5.60227 14.0076 5.8447 15.3939 6.32955 16.5227C6.82197 17.6515 7.51136 18.5076 8.39773 19.0909C9.28409 19.6742 10.322 19.9659 11.5114 19.9659C12.7008 19.9659 13.7386 19.6742 14.625 19.0909C15.5114 18.5076 16.197 17.6515 16.6818 16.5227C17.1742 15.3939 17.4205 14.0076 17.4205 12.3636ZM37.1562 16.5682V6.54545H41.9972V24H37.3494V20.8295H37.1676C36.7737 21.8523 36.1184 22.6742 35.2017 23.2955C34.2926 23.9167 33.1828 24.2273 31.8722 24.2273C30.7055 24.2273 29.679 23.9621 28.7926 23.4318C27.9063 22.9015 27.2131 22.1477 26.7131 21.1705C26.2206 20.1932 25.9706 19.0227 25.9631 17.6591V6.54545H30.804V16.7955C30.8116 17.8258 31.0881 18.6402 31.6335 19.2386C32.179 19.8371 32.91 20.1364 33.8267 20.1364C34.41 20.1364 34.9555 20.0038 35.4631 19.7386C35.9706 19.4659 36.3797 19.0644 36.6903 18.5341C37.0085 18.0038 37.1638 17.3485 37.1562 16.5682ZM45.8693 24V6.54545H50.5625V9.59091H50.7443C51.0625 8.50758 51.5966 7.68939 52.3466 7.13636C53.0966 6.57576 53.9602 6.29545 54.9375 6.29545C55.1799 6.29545 55.4413 6.31061 55.7216 6.34091C56.0019 6.37121 56.2481 6.41288 56.4602 6.46591V10.7614C56.233 10.6932 55.9186 10.6326 55.517 10.5795C55.1155 10.5265 54.7481 10.5 54.4148 10.5C53.7027 10.5 53.0663 10.6553 52.5057 10.9659C51.9527 11.2689 51.5133 11.6932 51.1875 12.2386C50.8693 12.7841 50.7102 13.4129 50.7102 14.125V24H45.8693ZM65.5739 4.78409V0.727272H84.6875V4.78409H77.5625V24H72.6989V4.78409H65.5739ZM90.3466 24.3295C89.233 24.3295 88.2405 24.1364 87.3693 23.75C86.4981 23.3561 85.8087 22.7765 85.3011 22.0114C84.8011 21.2386 84.5511 20.2765 84.5511 19.125C84.5511 18.1553 84.7292 17.3409 85.0852 16.6818C85.4413 16.0227 85.9261 15.4924 86.5398 15.0909C87.1534 14.6894 87.8504 14.3864 88.6307 14.1818C89.4186 13.9773 90.2443 13.8333 91.108 13.75C92.1231 13.6439 92.9413 13.5455 93.5625 13.4545C94.1837 13.3561 94.6345 13.2121 94.9148 13.0227C95.1951 12.8333 95.3352 12.553 95.3352 12.1818V12.1136C95.3352 11.3939 95.108 10.8371 94.6534 10.4432C94.2064 10.0492 93.5701 9.85227 92.7443 9.85227C91.8731 9.85227 91.1799 10.0455 90.6648 10.4318C90.1496 10.8106 89.8087 11.2879 89.642 11.8636L85.1648 11.5C85.392 10.4394 85.839 9.52273 86.5057 8.75C87.1723 7.9697 88.0322 7.37121 89.0852 6.95454C90.1458 6.5303 91.3731 6.31818 92.767 6.31818C93.7367 6.31818 94.6648 6.43182 95.5511 6.65909C96.4451 6.88636 97.2367 7.23864 97.9261 7.71591C98.6231 8.19318 99.1723 8.80682 99.5739 9.55682C99.9754 10.2992 100.176 11.1894 100.176 12.2273V24H95.5852V21.5795H95.4489C95.1686 22.125 94.7936 22.6061 94.3239 23.0227C93.8542 23.4318 93.2898 23.7538 92.6307 23.9886C91.9716 24.2159 91.2102 24.3295 90.3466 24.3295ZM91.733 20.9886C92.4451 20.9886 93.0739 20.8485 93.6193 20.5682C94.1648 20.2803 94.5928 19.8939 94.9034 19.4091C95.214 18.9242 95.3693 18.375 95.3693 17.7614V15.9091C95.2178 16.0076 95.0095 16.0985 94.7443 16.1818C94.4867 16.2576 94.1951 16.3295 93.8693 16.3977C93.5436 16.4583 93.2178 16.5152 92.892 16.5682C92.5663 16.6136 92.2708 16.6553 92.0057 16.6932C91.4375 16.7765 90.9413 16.9091 90.517 17.0909C90.0928 17.2727 89.7633 17.5189 89.5284 17.8295C89.2936 18.1326 89.1761 18.5114 89.1761 18.9659C89.1761 19.625 89.4148 20.1288 89.892 20.4773C90.3769 20.8182 90.9905 20.9886 91.733 20.9886ZM108.773 0.727272V24H103.932V0.727272H108.773ZM120.605 24.3409C118.81 24.3409 117.264 23.9773 115.969 23.25C114.681 22.5152 113.688 21.4773 112.991 20.1364C112.295 18.7879 111.946 17.1932 111.946 15.3523C111.946 13.5568 112.295 11.9811 112.991 10.625C113.688 9.26894 114.67 8.21212 115.935 7.45454C117.207 6.69697 118.7 6.31818 120.412 6.31818C121.563 6.31818 122.635 6.50379 123.628 6.875C124.628 7.23864 125.499 7.78788 126.241 8.52273C126.991 9.25758 127.575 10.1818 127.991 11.2955C128.408 12.4015 128.616 13.697 128.616 15.1818V16.5114H113.878V13.5114H124.06C124.06 12.8144 123.908 12.197 123.605 11.6591C123.302 11.1212 122.882 10.7008 122.344 10.3977C121.813 10.0871 121.196 9.93182 120.491 9.93182C119.757 9.93182 119.105 10.1023 118.537 10.4432C117.976 10.7765 117.537 11.2273 117.219 11.7955C116.901 12.3561 116.738 12.9811 116.73 13.6705V16.5227C116.73 17.3864 116.889 18.1326 117.207 18.7614C117.533 19.3902 117.991 19.875 118.582 20.2159C119.173 20.5568 119.874 20.7273 120.685 20.7273C121.223 20.7273 121.715 20.6515 122.162 20.5C122.609 20.3485 122.991 20.1212 123.31 19.8182C123.628 19.5152 123.87 19.1439 124.037 18.7045L128.514 19C128.287 20.0758 127.821 21.0152 127.116 21.8182C126.42 22.6136 125.518 23.2348 124.412 23.6818C123.313 24.1212 122.045 24.3409 120.605 24.3409ZM136.616 13.9091V24H131.776V6.54545H136.389V9.625H136.594C136.98 8.60985 137.628 7.80682 138.537 7.21591C139.446 6.61742 140.548 6.31818 141.844 6.31818C143.056 6.31818 144.113 6.58333 145.014 7.11364C145.916 7.64394 146.616 8.40151 147.116 9.38636C147.616 10.3636 147.866 11.5303 147.866 12.8864V24H143.026V13.75C143.033 12.6818 142.76 11.8485 142.207 11.25C141.654 10.6439 140.893 10.3409 139.923 10.3409C139.272 10.3409 138.696 10.4811 138.196 10.7614C137.704 11.0417 137.317 11.4508 137.037 11.9886C136.764 12.5189 136.624 13.1591 136.616 13.9091ZM160.966 6.54545V10.1818H150.455V6.54545H160.966ZM152.841 2.36364H157.682V18.6364C157.682 19.0833 157.75 19.4318 157.886 19.6818C158.023 19.9242 158.212 20.0947 158.455 20.1932C158.705 20.2917 158.992 20.3409 159.318 20.3409C159.545 20.3409 159.773 20.322 160 20.2841C160.227 20.2386 160.402 20.2045 160.523 20.1818L161.284 23.7841C161.042 23.8598 160.701 23.947 160.261 24.0455C159.822 24.1515 159.288 24.2159 158.659 24.2386C157.492 24.2841 156.47 24.1288 155.591 23.7727C154.72 23.4167 154.042 22.8636 153.557 22.1136C153.072 21.3636 152.833 20.4167 152.841 19.2727V2.36364Z" fill="url(#paint0_linear_0_3560)"/>
<defs>
<linearGradient id="paint0_linear_0_3560" x1="111.75" y1="-2.99999" x2="193.094" y2="33.7842" gradientUnits="userSpaceOnUse">
<stop stop-color="white"/>
<stop offset="1" stop-color="white" stop-opacity="0"/>
</linearGradient>
</defs>
</svg>
